<svg width="339" height="391" viewBox="0 0 339 391" fill="#00008B" xmlns="http://www.w3.org/2000/svg">
<g clip-path="url(#clip0_1_2)">
<path d="M320.956 109.339L301.935 90.3197H301.933C300.161 88.5456 297.289 88.5433 295.513 90.3127C289.321 96.5091 280.913 99.9805 272.154 99.9549C263.369 99.9805 254.94 96.4882 248.745 90.2591C235.866 77.3801 235.842 56.4028 248.694 43.4939C250.461 41.7175 250.459 38.846 248.69 37.0743L229.667 18.0524C225.797 14.1648 220.53 11.9864 215.043 12.0001C209.556 11.9838 204.289 14.1648 200.42 18.0572L33.0552 185.413L33.0575 185.411C29.165 189.282 26.984 194.547 27.0001 200.034C27.0001 205.556 29.151 210.75 33.0575 214.656L52.078 233.676V233.678C53.8499 235.45 56.7216 235.452 58.498 233.685C64.6899 227.489 73.0957 224.017 81.855 224.04C90.6399 224.017 99.0689 227.507 105.263 233.738C118.143 246.618 118.166 267.595 105.314 280.504H105.312C103.545 282.28 103.547 285.152 105.319 286.923L124.34 305.943C128.211 309.833 133.48 312.014 138.968 312C144.455 312.016 149.722 309.835 153.591 305.943L320.95 138.593H320.952C324.824 134.71 327 129.45 327 123.968C327 118.485 324.824 113.226 320.952 109.343L320.956 109.339ZM314.529 132.158L279.229 167.456L277.622 165.849C275.848 164.075 272.969 164.075 271.195 165.849C269.421 167.624 269.421 170.502 271.195 172.276L272.802 173.883L147.165 299.513C144.996 301.694 142.045 302.915 138.968 302.905C135.892 302.912 132.941 301.692 130.771 299.513L114.787 283.53C128.065 266.979 127.025 242.64 111.695 227.306H111.692C103.798 219.365 93.0535 214.915 81.8547 214.945C72.1448 214.945 62.9271 218.205 55.4678 224.208L39.4861 208.227V208.23C37.305 206.06 36.0819 203.107 36.0889 200.031C36.0889 196.934 37.2957 194.026 39.4861 191.835L165.117 66.2108L166.724 67.8175C167.314 68.4034 168.028 68.7801 168.777 68.9777L150.242 87.5116C148.466 89.288 148.466 92.1641 150.24 93.9407C152.014 95.7172 154.893 95.7171 156.669 93.943L175.122 75.4907C175.336 76.1581 175.69 76.7882 176.215 77.3183L185.712 86.8141L185.714 86.8117C186.565 87.6674 187.721 88.1487 188.927 88.1487C190.134 88.1464 191.29 87.6651 192.141 86.8094C192.994 85.9584 193.473 84.8005 193.473 83.5961C193.473 82.3894 192.994 81.2337 192.141 80.3828L182.645 70.887C182.131 70.3801 181.505 70.0058 180.817 69.7919L215.035 35.5754L224.285 44.8248V44.8271C226.059 46.6012 228.938 46.6012 230.712 44.8271C232.486 43.0507 232.486 40.1745 230.712 38.4004L220.02 27.7022C218.69 26.3699 216.921 25.6351 215.037 25.6351C213.154 25.6351 211.387 26.3676 210.057 27.6975L174.313 63.4467C174.115 62.6701 173.715 61.9633 173.153 61.3936L171.546 59.787L206.841 24.489C209.031 22.2987 211.94 21.0966 215.038 21.0966C218.135 21.0966 221.044 22.3033 223.234 24.489L239.219 40.4722C225.941 57.0227 226.98 81.3618 242.316 96.6963C250.213 104.637 260.957 109.087 272.156 109.057C281.866 109.057 291.083 105.797 298.548 99.7939L314.529 115.775L314.527 115.772C316.708 117.942 317.929 120.895 317.919 123.971C317.926 127.044 316.703 129.995 314.525 132.162L314.529 132.158Z"/>
<path d="M210.933 128.083C208.917 126.021 206.143 124.879 203.259 124.926C197.832 124.926 189.343 127.86 167.641 149.125C151.148 142.975 134.606 136.96 118.015 131.078C115.967 130.355 113.693 131.183 112.588 133.052L110.165 137.156C108.945 139.221 109.538 141.878 111.521 143.227C119.968 148.97 126.119 153.241 132.065 157.366C137.424 161.086 142.538 164.637 148.895 168.959C140.628 178.822 137.515 182.819 131.353 191.006C122.666 189.002 116.125 187.856 115.822 187.802H115.825C114.148 187.509 112.451 188.176 111.421 189.532L108.3 193.638H108.303C107.551 194.622 107.235 195.868 107.426 197.091C107.619 198.312 108.3 199.402 109.314 200.109C112.704 202.483 123.528 210.916 125.905 212.642L126.356 213.095C128.479 216.022 130.909 219.191 133.26 222.259C135.322 224.949 137.273 227.493 138.94 229.769C139.668 230.771 140.775 231.431 142.003 231.594C143.23 231.759 144.472 231.413 145.439 230.638L150.353 226.725C151.792 225.574 152.399 223.672 151.885 221.903C151.864 221.828 149.969 215.286 147.988 207.582L151.694 204.678H151.697C157.856 199.89 163.953 195.021 169.987 190.079C180.06 205.069 184.918 212.026 195.795 227.534V227.537C197.155 229.473 199.773 230.043 201.815 228.846L205.942 226.425C207.819 225.325 208.653 223.049 207.933 220.996C207.842 220.743 199.183 196.129 189.849 171.399C212.767 148.045 218.666 135.813 210.935 128.082L210.933 128.083ZM181.351 167.076C180.091 168.343 179.691 170.226 180.321 171.896C185.011 184.303 189.601 196.747 194.089 209.228C187.553 199.837 181.107 190.381 174.759 180.862C174.043 179.799 172.913 179.085 171.645 178.899C170.376 178.711 169.09 179.069 168.097 179.883C157.273 188.776 142.359 200.449 140.057 202.26C138.65 203.367 138.022 205.194 138.453 206.931C139.438 210.891 140.462 214.728 141.299 217.794C141.029 217.441 133.219 207.099 133.049 206.924L132.086 205.962C131.912 205.787 122.892 198.891 122.106 198.284C124.968 198.877 128.426 199.635 132.146 200.528V200.53C133.909 200.951 135.753 200.286 136.841 198.84C145.128 187.81 147.528 184.685 159.099 170.957C159.926 169.969 160.298 168.678 160.122 167.402C159.945 166.125 159.233 164.984 158.169 164.26C149.814 158.617 143.715 154.383 137.25 149.9L130.426 145.171V145.169C142.703 149.591 154.952 154.088 167.174 158.657C168.839 159.28 170.715 158.875 171.975 157.622C192.61 137.086 200.434 134.015 203.257 134.015C203.894 134.015 204.173 134.182 204.504 134.508C205.28 135.285 207.81 140.502 181.353 167.074L181.351 167.076ZM204.72 105.808C205.571 106.664 206.727 107.143 207.934 107.143C209.14 107.143 210.296 106.662 211.147 105.806C212 104.953 212.479 103.797 212.479 102.593C212.479 101.386 212 100.23 211.147 99.3793L201.651 89.8836V89.8812C199.874 88.1071 196.998 88.1071 195.224 89.8812C193.447 91.6553 193.447 94.5338 195.224 96.308L204.72 105.808ZM220.643 108.875C218.869 107.101 215.993 107.101 214.216 108.875C212.442 110.649 212.442 113.528 214.216 115.302L223.713 124.798H223.715C224.566 125.653 225.722 126.135 226.928 126.132C228.135 126.132 229.291 125.651 230.142 124.795C230.995 123.942 231.474 122.786 231.474 121.582C231.474 120.375 230.995 119.22 230.142 118.369L220.646 108.875L220.643 108.875ZM258.633 146.861C256.857 145.086 253.98 145.086 252.206 146.861C250.43 148.635 250.43 151.513 252.206 153.287L261.702 162.783C262.553 163.639 263.709 164.12 264.916 164.12C266.123 164.118 267.278 163.636 268.129 162.781C268.983 161.93 269.462 160.774 269.462 159.567C269.462 158.363 268.983 157.205 268.129 156.354L258.633 146.861ZM239.638 127.869C237.864 126.093 234.985 126.093 233.211 127.869C231.437 129.643 231.437 132.519 233.211 134.293L242.707 143.789V143.792C243.559 144.647 244.717 145.126 245.923 145.126C247.128 145.126 248.286 144.645 249.134 143.787C249.988 142.936 250.467 141.78 250.467 140.574C250.467 139.369 249.988 138.214 249.134 137.36L239.638 127.867L239.638 127.869ZM300.635 108.305C299.189 106.859 296.957 106.557 295.178 107.564C288.155 111.528 280.226 113.607 272.165 113.598C259.759 113.633 247.859 108.703 239.111 99.9072C237.326 98.2006 234.503 98.2332 232.754 99.9817C231.008 101.73 230.978 104.553 232.684 106.339C243.134 116.843 257.351 122.733 272.167 122.692C280.661 122.692 289.027 120.769 296.578 117.097L304.895 125.415C305.781 126.3 306.946 126.745 308.109 126.745C309.271 126.745 310.436 126.3 311.322 125.415C312.176 124.564 312.655 123.406 312.655 122.201C312.655 120.995 312.176 119.837 311.322 118.986L300.635 108.305ZM81.8632 201.317C72.1901 201.317 62.6796 203.814 54.3578 208.536H54.3601C52.1766 209.776 51.4093 212.55 52.6487 214.733C53.888 216.916 56.6621 217.681 58.8454 216.444C65.8678 212.48 73.7967 210.401 81.8607 210.41C94.2637 210.375 106.164 215.305 114.912 224.101C115.763 224.954 116.918 225.435 118.125 225.435C119.332 225.435 120.488 224.954 121.339 224.101C122.192 223.247 122.671 222.092 122.671 220.887C122.671 219.681 122.192 218.525 121.339 217.674C110.896 207.165 96.6793 201.275 81.8632 201.317Z"/>
<path d="M17.965 372V371.19L20.71 370.695C21.94 370.455 22.72 370.185 23.05 369.885C23.41 369.585 23.59 368.97 23.59 368.04V342.795H19.315C17.845 342.795 16.6 343.11 15.58 343.74C14.59 344.34 13.78 345.165 13.15 346.215C12.52 347.235 12.01 348.39 11.62 349.68H10.675C10.885 348.51 11.035 347.49 11.125 346.62C11.245 345.75 11.305 344.925 11.305 344.145C11.305 343.365 11.245 342.555 11.125 341.715H40.06C39.94 342.555 39.88 343.365 39.88 344.145C39.88 344.925 39.94 345.75 40.06 346.62C40.18 347.49 40.345 348.51 40.555 349.68H39.61C39.25 348.39 38.74 347.235 38.08 346.215C37.45 345.165 36.625 344.34 35.605 343.74C34.615 343.11 33.385 342.795 31.915 342.795H27.64V368.04C27.64 368.97 27.805 369.585 28.135 369.885C28.495 370.185 29.29 370.455 30.52 370.695L33.265 371.19V372H17.965ZM42.8201 372V371.325L44.7101 370.83C45.1601 370.71 45.4601 370.545 45.6101 370.335C45.7901 370.125 45.8801 369.81 45.8801 369.39V357.105C45.8801 356.505 45.8051 356.085 45.6551 355.845C45.5051 355.605 45.2201 355.425 44.8001 355.305L42.8651 354.765V354.315C43.5551 354.165 44.2301 354 44.8901 353.82C45.5801 353.64 46.2401 353.43 46.8701 353.19C47.5301 352.95 48.1601 352.665 48.7601 352.335L49.1651 352.605C49.0151 352.995 48.8801 353.43 48.7601 353.91C48.6701 354.36 48.6251 354.795 48.6251 355.215V355.665L48.8951 356.34V369.39C48.8951 369.81 48.9701 370.125 49.1201 370.335C49.3001 370.545 49.6151 370.71 50.0651 370.83L52.2251 371.325V372H42.8201ZM48.8951 359.31L48.0851 355.665L53.3051 352.695C53.4851 352.605 53.6651 352.545 53.8451 352.515C54.0551 352.455 54.2501 352.425 54.4301 352.425C54.9701 352.425 55.4501 352.605 55.8701 352.965C56.2901 353.325 56.5001 353.85 56.5001 354.54C56.5001 355.08 56.3051 355.56 55.9151 355.98C55.5251 356.4 54.9851 356.61 54.2951 356.61C53.8751 356.61 53.5301 356.52 53.2601 356.34C52.9901 356.16 52.7501 355.965 52.5401 355.755C52.3901 355.575 52.2251 355.41 52.0451 355.26C51.8951 355.11 51.7151 355.035 51.5051 355.035C51.2951 355.035 50.9801 355.17 50.5601 355.44C50.1401 355.68 49.7501 356.115 49.3901 356.745C49.0601 357.375 48.8951 358.23 48.8951 359.31ZM64.2844 372.315C63.3844 372.315 62.5294 372.03 61.7194 371.46C60.9094 370.89 60.2494 370.155 59.7394 369.255C59.2294 368.325 58.9744 367.38 58.9744 366.42C58.9744 365.91 59.0194 365.55 59.1094 365.34C59.2294 365.13 59.3944 364.98 59.6044 364.89L68.1994 361.785C68.9194 361.515 69.4144 361.215 69.6844 360.885C69.9544 360.525 70.0894 360.045 70.0894 359.445V358.635C70.0894 357.255 69.7594 356.055 69.0994 355.035C68.4394 354.015 67.4194 353.505 66.0394 353.505C65.1394 353.505 64.3894 353.715 63.7894 354.135C63.2194 354.555 62.9344 355.125 62.9344 355.845C62.9344 356.025 62.9794 356.205 63.0694 356.385C63.1594 356.535 63.2644 356.685 63.3844 356.835C63.5644 357.075 63.7144 357.33 63.8344 357.6C63.9544 357.87 64.0144 358.155 64.0144 358.455C64.0144 359.025 63.8044 359.49 63.3844 359.85C62.9944 360.18 62.4994 360.345 61.8994 360.345C61.2394 360.345 60.7144 360.15 60.3244 359.76C59.9644 359.34 59.7844 358.755 59.7844 358.005C59.7844 356.985 60.1144 356.055 60.7744 355.215C61.4644 354.375 62.3494 353.715 63.4294 353.235C64.5094 352.725 65.6194 352.47 66.7594 352.47C68.1994 352.47 69.3844 352.755 70.3144 353.325C71.2744 353.895 71.9794 354.645 72.4294 355.575C72.9094 356.505 73.1494 357.525 73.1494 358.635V368.085C73.1494 368.715 73.2094 369.255 73.3294 369.705C73.4794 370.125 73.8544 370.335 74.4544 370.335C75.1144 370.335 75.8194 370.185 76.5694 369.885V370.56C75.9994 370.92 75.2794 371.31 74.4094 371.73C73.5694 372.12 72.8794 372.315 72.3394 372.315C71.6794 372.315 71.1844 372.15 70.8544 371.82C70.5544 371.46 70.3594 371.025 70.2694 370.515C70.1794 369.975 70.1344 369.435 70.1344 368.895V368.355L70.5844 368.985C69.9844 369.465 69.3244 369.96 68.6044 370.47C67.8844 370.98 67.1494 371.415 66.3994 371.775C65.6794 372.135 64.9744 372.315 64.2844 372.315ZM65.5444 370.155C66.1444 370.155 66.7594 370.005 67.3894 369.705C68.0494 369.405 68.7094 369.015 69.3694 368.535C69.8794 368.115 70.1344 367.53 70.1344 366.78V362.64C70.1344 362.55 70.0894 362.475 69.9994 362.415C69.9394 362.355 69.8644 362.355 69.7744 362.415L62.7094 365.07C62.5294 365.13 62.3944 365.28 62.3044 365.52C62.2444 365.73 62.2144 366.075 62.2144 366.555C62.2144 367.125 62.3944 367.695 62.7544 368.265C63.1144 368.805 63.5494 369.255 64.0594 369.615C64.5994 369.975 65.0944 370.155 65.5444 370.155ZM91.4113 372V371.325L93.3013 370.83C93.7513 370.71 94.0513 370.545 94.2013 370.335C94.3813 370.125 94.4713 369.81 94.4713 369.39V359.31C94.4713 357.87 94.0663 356.775 93.2563 356.025C92.4763 355.245 91.3363 354.855 89.8363 354.855C88.3663 354.855 87.1663 355.35 86.2363 356.34C85.3363 357.3 84.8863 358.44 84.8863 359.76L83.6713 355.305H84.7963C85.5163 355.005 86.3863 354.6 87.4063 354.09C88.4263 353.55 89.3113 353.085 90.0613 352.695C90.3613 352.545 90.6013 352.47 90.7813 352.47C92.9113 352.47 94.5613 353.01 95.7313 354.09C96.9013 355.14 97.4863 356.685 97.4863 358.725V369.39C97.4863 369.81 97.5613 370.125 97.7113 370.335C97.8913 370.545 98.2063 370.71 98.6563 370.83L100.546 371.325V372H91.4113ZM78.8113 372V371.325L80.7013 370.83C81.1513 370.71 81.4513 370.545 81.6013 370.335C81.7813 370.125 81.8713 369.81 81.8713 369.39V357.105C81.8713 356.505 81.7963 356.085 81.6463 355.845C81.4963 355.605 81.2113 355.425 80.7913 355.305L78.8563 354.765V354.315C79.5463 354.165 80.2213 354 80.8813 353.82C81.5713 353.64 82.2313 353.43 82.8613 353.19C83.5213 352.95 84.1513 352.665 84.7513 352.335L85.1563 352.605C85.0063 352.995 84.8713 353.43 84.7513 353.91C84.6613 354.36 84.6163 354.795 84.6163 355.215V355.665L84.8863 356.34V369.39C84.8863 369.81 84.9613 370.125 85.1113 370.335C85.2913 370.545 85.6063 370.71 86.0563 370.83L87.9463 371.325V372H78.8113ZM109.42 372.36C108.13 372.36 106.915 372.15 105.775 371.73C104.665 371.31 103.81 370.92 103.21 370.56C103.27 369.69 103.285 368.82 103.255 367.95C103.255 367.08 103.18 366.18 103.03 365.25H104.245C104.425 366.45 104.74 367.515 105.19 368.445C105.67 369.345 106.3 370.05 107.08 370.56C107.89 371.07 108.88 371.325 110.05 371.325C110.92 371.325 111.685 371.01 112.345 370.38C113.035 369.72 113.38 368.94 113.38 368.04C113.38 367.26 113.245 366.615 112.975 366.105C112.735 365.595 112.27 365.13 111.58 364.71C110.89 364.29 109.885 363.84 108.565 363.36C106.975 362.73 105.745 362.025 104.875 361.245C104.005 360.435 103.57 359.295 103.57 357.825C103.57 356.895 103.825 356.025 104.335 355.215C104.875 354.405 105.625 353.745 106.585 353.235C107.545 352.725 108.655 352.47 109.915 352.47C110.785 352.47 111.49 352.56 112.03 352.74C112.57 352.92 113.14 353.145 113.74 353.415H114.775C114.745 354.435 114.73 355.335 114.73 356.115C114.76 356.865 114.865 357.735 115.045 358.725H114.055C113.755 357.075 113.23 355.8 112.48 354.9C111.73 354 110.785 353.55 109.645 353.55C108.655 353.55 107.845 353.835 107.215 354.405C106.585 354.975 106.27 355.695 106.27 356.565C106.27 357.285 106.375 357.885 106.585 358.365C106.825 358.815 107.26 359.235 107.89 359.625C108.52 359.985 109.465 360.405 110.725 360.885C112.705 361.635 114.07 362.43 114.82 363.27C115.6 364.08 115.99 365.19 115.99 366.6C115.99 367.56 115.75 368.49 115.27 369.39C114.79 370.26 114.07 370.98 113.11 371.55C112.15 372.09 110.92 372.36 109.42 372.36ZM116.924 372V371.19L119.039 370.83C120.059 370.65 120.839 370.365 121.379 369.975C121.919 369.555 122.339 368.97 122.639 368.22L131.774 345.9L130.829 343.425C131.459 343.395 131.984 343.215 132.404 342.885C132.824 342.525 133.139 342.135 133.349 341.715C133.559 341.265 133.664 340.89 133.664 340.59H134.069L145.049 367.185C145.589 368.505 146.144 369.405 146.714 369.885C147.314 370.335 148.079 370.65 149.009 370.83L150.809 371.19V372H136.004V371.19L138.434 370.785C139.394 370.635 140.054 370.455 140.414 370.245C140.774 370.035 140.954 369.75 140.954 369.39C140.954 369.15 140.894 368.865 140.774 368.535C140.654 368.205 140.519 367.83 140.369 367.41L132.134 346.62H133.169L124.214 368.31C124.124 368.52 124.049 368.73 123.989 368.94C123.929 369.12 123.899 369.285 123.899 369.435C123.899 369.795 124.034 370.065 124.304 370.245C124.604 370.425 125.024 370.56 125.564 370.65L128.489 371.19V372H116.924ZM126.914 361.695L126.599 360.255H139.784V361.695H126.914ZM158.082 372.54L150.432 354.945C150.282 354.585 150.117 354.33 149.937 354.18C149.757 354.03 149.457 353.91 149.037 353.82L147.642 353.505V352.83H157.182V353.505L154.662 354.09C154.272 354.18 154.002 354.315 153.852 354.495C153.732 354.645 153.717 354.84 153.807 355.08L159.342 367.95H158.847L164.292 354.81C164.352 354.66 164.337 354.525 164.247 354.405C164.187 354.285 163.932 354.165 163.482 354.045L161.367 353.505V352.83H168.387V353.505L166.947 353.865C166.557 353.955 166.257 354.075 166.047 354.225C165.867 354.375 165.702 354.63 165.552 354.99L158.532 372.54H158.082ZM170.174 372V371.325L172.064 370.83C172.844 370.62 173.234 370.14 173.234 369.39V357.06C173.234 356.46 173.159 356.04 173.009 355.8C172.859 355.56 172.574 355.38 172.154 355.26L170.219 354.72V354.27C171.299 354.03 172.349 353.775 173.369 353.505C174.389 353.205 175.394 352.8 176.384 352.29L176.789 352.56C176.549 353.22 176.399 353.91 176.339 354.63C176.279 355.32 176.249 356.19 176.249 357.24V369.39C176.249 369.78 176.339 370.095 176.519 370.335C176.699 370.575 176.969 370.74 177.329 370.83L179.219 371.325V372H170.174ZM174.674 346.71C174.014 346.71 173.429 346.455 172.919 345.945C172.409 345.435 172.154 344.85 172.154 344.19C172.154 343.47 172.409 342.855 172.919 342.345C173.429 341.835 174.014 341.58 174.674 341.58C175.394 341.58 176.009 341.835 176.519 342.345C177.029 342.855 177.284 343.47 177.284 344.19C177.284 344.85 177.029 345.435 176.519 345.945C176.009 346.455 175.394 346.71 174.674 346.71ZM187.683 372.315C186.783 372.315 185.928 372.03 185.118 371.46C184.308 370.89 183.648 370.155 183.138 369.255C182.628 368.325 182.373 367.38 182.373 366.42C182.373 365.91 182.418 365.55 182.508 365.34C182.628 365.13 182.793 364.98 183.003 364.89L191.598 361.785C192.318 361.515 192.813 361.215 193.083 360.885C193.353 360.525 193.488 360.045 193.488 359.445V358.635C193.488 357.255 193.158 356.055 192.498 355.035C191.838 354.015 190.818 353.505 189.438 353.505C188.538 353.505 187.788 353.715 187.188 354.135C186.618 354.555 186.333 355.125 186.333 355.845C186.333 356.025 186.378 356.205 186.468 356.385C186.558 356.535 186.663 356.685 186.783 356.835C186.963 357.075 187.113 357.33 187.233 357.6C187.353 357.87 187.413 358.155 187.413 358.455C187.413 359.025 187.203 359.49 186.783 359.85C186.393 360.18 185.898 360.345 185.298 360.345C184.638 360.345 184.113 360.15 183.723 359.76C183.363 359.34 183.183 358.755 183.183 358.005C183.183 356.985 183.513 356.055 184.173 355.215C184.863 354.375 185.748 353.715 186.828 353.235C187.908 352.725 189.018 352.47 190.158 352.47C191.598 352.47 192.783 352.755 193.713 353.325C194.673 353.895 195.378 354.645 195.828 355.575C196.308 356.505 196.548 357.525 196.548 358.635V368.085C196.548 368.715 196.608 369.255 196.728 369.705C196.878 370.125 197.253 370.335 197.853 370.335C198.513 370.335 199.218 370.185 199.968 369.885V370.56C199.398 370.92 198.678 371.31 197.808 371.73C196.968 372.12 196.278 372.315 195.738 372.315C195.078 372.315 194.583 372.15 194.253 371.82C193.953 371.46 193.758 371.025 193.668 370.515C193.578 369.975 193.533 369.435 193.533 368.895V368.355L193.983 368.985C193.383 369.465 192.723 369.96 192.003 370.47C191.283 370.98 190.548 371.415 189.798 371.775C189.078 372.135 188.373 372.315 187.683 372.315ZM188.943 370.155C189.543 370.155 190.158 370.005 190.788 369.705C191.448 369.405 192.108 369.015 192.768 368.535C193.278 368.115 193.533 367.53 193.533 366.78V362.64C193.533 362.55 193.488 362.475 193.398 362.415C193.338 362.355 193.263 362.355 193.173 362.415L186.108 365.07C185.928 365.13 185.793 365.28 185.703 365.52C185.643 365.73 185.613 366.075 185.613 366.555C185.613 367.125 185.793 367.695 186.153 368.265C186.513 368.805 186.948 369.255 187.458 369.615C187.998 369.975 188.493 370.155 188.943 370.155ZM206.139 372V371.19L208.884 370.695C210.114 370.455 210.894 370.185 211.224 369.885C211.584 369.585 211.764 368.97 211.764 368.04V342.795H207.489C206.019 342.795 204.774 343.11 203.754 343.74C202.764 344.34 201.954 345.165 201.324 346.215C200.694 347.235 200.184 348.39 199.794 349.68H198.849C199.059 348.51 199.209 347.49 199.299 346.62C199.419 345.75 199.479 344.925 199.479 344.145C199.479 343.365 199.419 342.555 199.299 341.715H228.234C228.114 342.555 228.054 343.365 228.054 344.145C228.054 344.925 228.114 345.75 228.234 346.62C228.354 347.49 228.519 348.51 228.729 349.68H227.784C227.424 348.39 226.914 347.235 226.254 346.215C225.624 345.165 224.799 344.34 223.779 343.74C222.789 343.11 221.559 342.795 220.089 342.795H215.814V368.04C215.814 368.97 215.979 369.585 216.309 369.885C216.669 370.185 217.464 370.455 218.694 370.695L221.439 371.19V372H206.139ZM230.994 372V371.325L232.884 370.83C233.334 370.71 233.634 370.545 233.784 370.335C233.964 370.125 234.054 369.81 234.054 369.39V357.105C234.054 356.505 233.979 356.085 233.829 355.845C233.679 355.605 233.394 355.425 232.974 355.305L231.039 354.765V354.315C231.729 354.165 232.404 354 233.064 353.82C233.754 353.64 234.414 353.43 235.044 353.19C235.704 352.95 236.334 352.665 236.934 352.335L237.339 352.605C237.189 352.995 237.054 353.43 236.934 353.91C236.844 354.36 236.799 354.795 236.799 355.215V355.665L237.069 356.34V369.39C237.069 369.81 237.144 370.125 237.294 370.335C237.474 370.545 237.789 370.71 238.239 370.83L240.399 371.325V372H230.994ZM237.069 359.31L236.259 355.665L241.479 352.695C241.659 352.605 241.839 352.545 242.019 352.515C242.229 352.455 242.424 352.425 242.604 352.425C243.144 352.425 243.624 352.605 244.044 352.965C244.464 353.325 244.674 353.85 244.674 354.54C244.674 355.08 244.479 355.56 244.089 355.98C243.699 356.4 243.159 356.61 242.469 356.61C242.049 356.61 241.704 356.52 241.434 356.34C241.164 356.16 240.924 355.965 240.714 355.755C240.564 355.575 240.399 355.41 240.219 355.26C240.069 355.11 239.889 355.035 239.679 355.035C239.469 355.035 239.154 355.17 238.734 355.44C238.314 355.68 237.924 356.115 237.564 356.745C237.234 357.375 237.069 358.23 237.069 359.31ZM252.458 372.315C251.558 372.315 250.703 372.03 249.893 371.46C249.083 370.89 248.423 370.155 247.913 369.255C247.403 368.325 247.148 367.38 247.148 366.42C247.148 365.91 247.193 365.55 247.283 365.34C247.403 365.13 247.568 364.98 247.778 364.89L256.373 361.785C257.093 361.515 257.588 361.215 257.858 360.885C258.128 360.525 258.263 360.045 258.263 359.445V358.635C258.263 357.255 257.933 356.055 257.273 355.035C256.613 354.015 255.593 353.505 254.213 353.505C253.313 353.505 252.563 353.715 251.963 354.135C251.393 354.555 251.108 355.125 251.108 355.845C251.108 356.025 251.153 356.205 251.243 356.385C251.333 356.535 251.438 356.685 251.558 356.835C251.738 357.075 251.888 357.33 252.008 357.6C252.128 357.87 252.188 358.155 252.188 358.455C252.188 359.025 251.978 359.49 251.558 359.85C251.168 360.18 250.673 360.345 250.073 360.345C249.413 360.345 248.888 360.15 248.498 359.76C248.138 359.34 247.958 358.755 247.958 358.005C247.958 356.985 248.288 356.055 248.948 355.215C249.638 354.375 250.523 353.715 251.603 353.235C252.683 352.725 253.793 352.47 254.933 352.47C256.373 352.47 257.558 352.755 258.488 353.325C259.448 353.895 260.153 354.645 260.603 355.575C261.083 356.505 261.323 357.525 261.323 358.635V368.085C261.323 368.715 261.383 369.255 261.503 369.705C261.653 370.125 262.028 370.335 262.628 370.335C263.288 370.335 263.993 370.185 264.743 369.885V370.56C264.173 370.92 263.453 371.31 262.583 371.73C261.743 372.12 261.053 372.315 260.513 372.315C259.853 372.315 259.358 372.15 259.028 371.82C258.728 371.46 258.533 371.025 258.443 370.515C258.353 369.975 258.308 369.435 258.308 368.895V368.355L258.758 368.985C258.158 369.465 257.498 369.96 256.778 370.47C256.058 370.98 255.323 371.415 254.573 371.775C253.853 372.135 253.148 372.315 252.458 372.315ZM253.718 370.155C254.318 370.155 254.933 370.005 255.563 369.705C256.223 369.405 256.883 369.015 257.543 368.535C258.053 368.115 258.308 367.53 258.308 366.78V362.64C258.308 362.55 258.263 362.475 258.173 362.415C258.113 362.355 258.038 362.355 257.948 362.415L250.883 365.07C250.703 365.13 250.568 365.28 250.478 365.52C250.418 365.73 250.388 366.075 250.388 366.555C250.388 367.125 250.568 367.695 250.928 368.265C251.288 368.805 251.723 369.255 252.233 369.615C252.773 369.975 253.268 370.155 253.718 370.155ZM274.273 372.54L266.623 354.945C266.473 354.585 266.308 354.33 266.128 354.18C265.948 354.03 265.648 353.91 265.228 353.82L263.833 353.505V352.83H273.373V353.505L270.853 354.09C270.463 354.18 270.193 354.315 270.043 354.495C269.923 354.645 269.908 354.84 269.998 355.08L275.533 367.95H275.038L280.483 354.81C280.543 354.66 280.528 354.525 280.438 354.405C280.378 354.285 280.123 354.165 279.673 354.045L277.558 353.505V352.83H284.578V353.505L283.138 353.865C282.748 353.955 282.448 354.075 282.238 354.225C282.058 354.375 281.893 354.63 281.743 354.99L274.723 372.54H274.273ZM294.627 372.36C292.887 372.36 291.342 371.925 289.992 371.055C288.642 370.185 287.577 369.03 286.797 367.59C286.047 366.12 285.672 364.485 285.672 362.685C285.672 360.675 286.077 358.905 286.887 357.375C287.697 355.845 288.792 354.645 290.172 353.775C291.582 352.905 293.157 352.47 294.897 352.47C296.307 352.47 297.522 352.815 298.542 353.505C299.592 354.165 300.402 355.08 300.972 356.25C301.572 357.39 301.872 358.68 301.872 360.12C301.872 360.3 301.812 360.465 301.692 360.615C301.602 360.765 301.422 360.84 301.152 360.84H288.147V359.805L297.372 359.535C297.942 359.535 298.227 359.265 298.227 358.725C298.227 357.315 297.912 356.115 297.282 355.125C296.682 354.135 295.722 353.64 294.402 353.64C292.752 353.64 291.417 354.39 290.397 355.89C289.377 357.36 288.867 359.295 288.867 361.695C288.867 363.435 289.182 364.905 289.812 366.105C290.442 367.305 291.282 368.22 292.332 368.85C293.382 369.45 294.537 369.75 295.797 369.75C297.687 369.75 299.592 368.955 301.512 367.365L302.052 367.815C300.942 369.405 299.712 370.56 298.362 371.28C297.042 372 295.797 372.36 294.627 372.36ZM305.437 372V371.325L307.327 370.83C307.777 370.71 308.077 370.545 308.227 370.335C308.407 370.125 308.497 369.81 308.497 369.39L308.587 344.73C308.587 344.13 308.512 343.71 308.362 343.47C308.212 343.23 307.927 343.05 307.507 342.93L305.437 342.39V341.94C306.517 341.7 307.582 341.445 308.632 341.175C309.712 340.875 310.747 340.47 311.737 339.96L312.142 340.23C311.902 340.89 311.752 341.58 311.692 342.3C311.632 342.99 311.602 343.86 311.602 344.91L311.512 369.39C311.512 369.81 311.587 370.125 311.737 370.335C311.917 370.545 312.232 370.71 312.682 370.83L314.572 371.325V372H305.437Z"/>
</g>
<defs>
<clipPath id="clip0_1_2">
<rect width="339" height="391" fill="white"/>
</clipPath>
</defs>
</svg>
